# xmcd
#
# Track frame offsets:
#	225
#	13933
#	31113
#	46208
#	60398
#	73537
#	88282
#	100892
#	115039
#	129044
#	143188
#	160277
#
# Disc length: 2334 seconds
#
# Revision: 1
# Processed by: cddbd v1.5.2PL0 Copyright (c) Steve Scherf et al.
# Submitted via: audiograbber 1.82.02
#
DISCID=98091b0c
DTITLE=Trio Melody - Mein Herz dreht sich...
DYEAR=1900
DGENRE=
TTITLE0=Mein Herz dreht sich im Fieber
TTITLE1=Diesmal so richtig
TTITLE2=War das alles nur ein Spiel
TTITLE3=Luisa
TTITLE4=So lieb hab´ ich von dir geträumt
TTITLE5=Erst wenn dein mund mir erzählt
TTITLE6=Es ist so wie im Märchen
TTITLE7=Tausend Palmen und eine Liebe
TTITLE8=Alle Sterne dieser Erde
TTITLE9=Wenn eine Liebe geht
TTITLE10=Mein Herz sagt ja zu dir
TTITLE11=Es ist niemals zu spät
EXTD=
EXTT0=
EXTT1=
EXTT2=
EXTT3=
EXTT4=
EXTT5=
EXTT6=
EXTT7=
EXTT8=
EXTT9=
EXTT10=
EXTT11=
PLAYORDER=
